<mxfile host="app.diagrams.net" modified="2024-05-27T14:12:06.547Z" agent="Mozilla/5.0 (Windows NT 10.0; Win64; x64) AppleWebKit/537.36 (KHTML, like Gecko) Chrome/121.0.0.0 Safari/537.36" etag="FEChMDHaNGzMIpqB04A6" version="24.4.9" type="device">
  <diagram name="Página-1" id="bxvimao_P090NeMA0EiW">
    <mxGraphModel dx="1434" dy="782" grid="1" gridSize="10" guides="1" tooltips="1" connect="1" arrows="1" fold="1" page="1" pageScale="1" pageWidth="827" pageHeight="1169" math="0" shadow="0">
      <root>
        <mxCell id="0" />
        <mxCell id="1" parent="0" />
        <mxCell id="ApZKAQ_FeUihaHH6Phk7-1" value="procurar cliente" style="rounded=1;whiteSpace=wrap;html=1;" vertex="1" parent="1">
          <mxGeometry x="40" y="40" width="530" height="50" as="geometry" />
        </mxCell>
        <mxCell id="ApZKAQ_FeUihaHH6Phk7-2" value="" style="shape=image;html=1;verticalLabelPosition=bottom;verticalAlign=top;imageAspect=1;aspect=fixed;image=https://images.vexels.com/media/users/3/204845/isolated/lists/31084e04c65187ba8d1ecb9880f5d29f-design-de-icone-de-traco-de-lupa.png;" vertex="1" parent="1">
          <mxGeometry x="580" y="32.5" width="55.41" height="65" as="geometry" />
        </mxCell>
        <mxCell id="ApZKAQ_FeUihaHH6Phk7-3" value="Não encontrado&amp;nbsp;" style="text;html=1;align=center;verticalAlign=middle;whiteSpace=wrap;rounded=0;" vertex="1" parent="1">
          <mxGeometry x="200" y="140" width="220" height="30" as="geometry" />
        </mxCell>
        <mxCell id="ApZKAQ_FeUihaHH6Phk7-5" value="Fazer Cadastro" style="rounded=1;whiteSpace=wrap;html=1;fillColor=#d5e8d4;strokeColor=#82b366;" vertex="1" parent="1">
          <mxGeometry x="250" y="180" width="120" height="60" as="geometry" />
        </mxCell>
        <mxCell id="ApZKAQ_FeUihaHH6Phk7-6" value="procurar cliente" style="rounded=1;whiteSpace=wrap;html=1;" vertex="1" parent="1">
          <mxGeometry x="40" y="357.5" width="530" height="50" as="geometry" />
        </mxCell>
        <mxCell id="ApZKAQ_FeUihaHH6Phk7-7" value="" style="shape=image;html=1;verticalLabelPosition=bottom;verticalAlign=top;imageAspect=1;aspect=fixed;image=https://images.vexels.com/media/users/3/204845/isolated/lists/31084e04c65187ba8d1ecb9880f5d29f-design-de-icone-de-traco-de-lupa.png;" vertex="1" parent="1">
          <mxGeometry x="580" y="350" width="55.41" height="65" as="geometry" />
        </mxCell>
        <mxCell id="ApZKAQ_FeUihaHH6Phk7-8" value="" style="ellipse;whiteSpace=wrap;html=1;aspect=fixed;" vertex="1" parent="1">
          <mxGeometry x="40" y="480" width="80" height="80" as="geometry" />
        </mxCell>
        <mxCell id="ApZKAQ_FeUihaHH6Phk7-9" value="Nome do cliente" style="text;html=1;align=center;verticalAlign=middle;whiteSpace=wrap;rounded=0;" vertex="1" parent="1">
          <mxGeometry x="140" y="505" width="160" height="30" as="geometry" />
        </mxCell>
        <mxCell id="ApZKAQ_FeUihaHH6Phk7-11" value="" style="shape=actor;whiteSpace=wrap;html=1;" vertex="1" parent="1">
          <mxGeometry x="60" y="490" width="40" height="60" as="geometry" />
        </mxCell>
        <mxCell id="ApZKAQ_FeUihaHH6Phk7-12" value="Atualizar?" style="rounded=1;whiteSpace=wrap;html=1;fillColor=#d5e8d4;strokeColor=#82b366;" vertex="1" parent="1">
          <mxGeometry x="470" y="505" width="76" height="30" as="geometry" />
        </mxCell>
        <mxCell id="ApZKAQ_FeUihaHH6Phk7-13" value="Apagar?" style="rounded=1;whiteSpace=wrap;html=1;fillColor=#d5e8d4;strokeColor=#82b366;" vertex="1" parent="1">
          <mxGeometry x="380" y="505" width="76" height="30" as="geometry" />
        </mxCell>
        <mxCell id="ApZKAQ_FeUihaHH6Phk7-14" value="Entrar" style="rounded=1;whiteSpace=wrap;html=1;fillColor=#d5e8d4;strokeColor=#82b366;" vertex="1" parent="1">
          <mxGeometry x="294" y="505" width="76" height="30" as="geometry" />
        </mxCell>
        <mxCell id="ApZKAQ_FeUihaHH6Phk7-15" value="procurar cliente" style="rounded=1;whiteSpace=wrap;html=1;" vertex="1" parent="1">
          <mxGeometry x="40" y="707.5" width="530" height="50" as="geometry" />
        </mxCell>
        <mxCell id="ApZKAQ_FeUihaHH6Phk7-16" value="" style="shape=image;html=1;verticalLabelPosition=bottom;verticalAlign=top;imageAspect=1;aspect=fixed;image=https://images.vexels.com/media/users/3/204845/isolated/lists/31084e04c65187ba8d1ecb9880f5d29f-design-de-icone-de-traco-de-lupa.png;" vertex="1" parent="1">
          <mxGeometry x="580" y="700" width="55.41" height="65" as="geometry" />
        </mxCell>
        <mxCell id="ApZKAQ_FeUihaHH6Phk7-17" value="" style="ellipse;whiteSpace=wrap;html=1;aspect=fixed;" vertex="1" parent="1">
          <mxGeometry x="40" y="800" width="80" height="80" as="geometry" />
        </mxCell>
        <mxCell id="ApZKAQ_FeUihaHH6Phk7-18" value="Nome do cliente" style="text;html=1;align=center;verticalAlign=middle;whiteSpace=wrap;rounded=0;" vertex="1" parent="1">
          <mxGeometry x="140" y="825" width="160" height="30" as="geometry" />
        </mxCell>
        <mxCell id="ApZKAQ_FeUihaHH6Phk7-19" value="" style="shape=actor;whiteSpace=wrap;html=1;" vertex="1" parent="1">
          <mxGeometry x="60" y="810" width="40" height="60" as="geometry" />
        </mxCell>
        <mxCell id="ApZKAQ_FeUihaHH6Phk7-20" value="Atualizar?" style="rounded=1;whiteSpace=wrap;html=1;fillColor=#d5e8d4;strokeColor=#82b366;" vertex="1" parent="1">
          <mxGeometry x="470" y="825" width="76" height="30" as="geometry" />
        </mxCell>
        <mxCell id="ApZKAQ_FeUihaHH6Phk7-21" value="Apagar?" style="rounded=1;whiteSpace=wrap;html=1;fillColor=#d5e8d4;strokeColor=#82b366;" vertex="1" parent="1">
          <mxGeometry x="380" y="825" width="76" height="30" as="geometry" />
        </mxCell>
        <mxCell id="ApZKAQ_FeUihaHH6Phk7-22" value="Entrar" style="rounded=1;whiteSpace=wrap;html=1;fillColor=#d5e8d4;strokeColor=#82b366;" vertex="1" parent="1">
          <mxGeometry x="294" y="825" width="76" height="30" as="geometry" />
        </mxCell>
        <mxCell id="ApZKAQ_FeUihaHH6Phk7-53" value="" style="ellipse;whiteSpace=wrap;html=1;aspect=fixed;" vertex="1" parent="1">
          <mxGeometry x="40" y="920" width="80" height="80" as="geometry" />
        </mxCell>
        <mxCell id="ApZKAQ_FeUihaHH6Phk7-54" value="Nome do cliente" style="text;html=1;align=center;verticalAlign=middle;whiteSpace=wrap;rounded=0;" vertex="1" parent="1">
          <mxGeometry x="140" y="945" width="160" height="30" as="geometry" />
        </mxCell>
        <mxCell id="ApZKAQ_FeUihaHH6Phk7-55" value="" style="shape=actor;whiteSpace=wrap;html=1;" vertex="1" parent="1">
          <mxGeometry x="60" y="930" width="40" height="60" as="geometry" />
        </mxCell>
        <mxCell id="ApZKAQ_FeUihaHH6Phk7-56" value="Atualizar?" style="rounded=1;whiteSpace=wrap;html=1;fillColor=#d5e8d4;strokeColor=#82b366;" vertex="1" parent="1">
          <mxGeometry x="470" y="945" width="76" height="30" as="geometry" />
        </mxCell>
        <mxCell id="ApZKAQ_FeUihaHH6Phk7-57" value="Apagar?" style="rounded=1;whiteSpace=wrap;html=1;fillColor=#d5e8d4;strokeColor=#82b366;" vertex="1" parent="1">
          <mxGeometry x="380" y="945" width="76" height="30" as="geometry" />
        </mxCell>
        <mxCell id="ApZKAQ_FeUihaHH6Phk7-58" value="Entrar" style="rounded=1;whiteSpace=wrap;html=1;fillColor=#d5e8d4;strokeColor=#82b366;" vertex="1" parent="1">
          <mxGeometry x="294" y="945" width="76" height="30" as="geometry" />
        </mxCell>
        <mxCell id="ApZKAQ_FeUihaHH6Phk7-59" value="" style="ellipse;whiteSpace=wrap;html=1;aspect=fixed;" vertex="1" parent="1">
          <mxGeometry x="40" y="1060" width="80" height="80" as="geometry" />
        </mxCell>
        <mxCell id="ApZKAQ_FeUihaHH6Phk7-60" value="Nome do cliente" style="text;html=1;align=center;verticalAlign=middle;whiteSpace=wrap;rounded=0;" vertex="1" parent="1">
          <mxGeometry x="140" y="1085" width="160" height="30" as="geometry" />
        </mxCell>
        <mxCell id="ApZKAQ_FeUihaHH6Phk7-61" value="" style="shape=actor;whiteSpace=wrap;html=1;" vertex="1" parent="1">
          <mxGeometry x="60" y="1070" width="40" height="60" as="geometry" />
        </mxCell>
        <mxCell id="ApZKAQ_FeUihaHH6Phk7-62" value="Atualizar?" style="rounded=1;whiteSpace=wrap;html=1;fillColor=#d5e8d4;strokeColor=#82b366;" vertex="1" parent="1">
          <mxGeometry x="470" y="1085" width="76" height="30" as="geometry" />
        </mxCell>
        <mxCell id="ApZKAQ_FeUihaHH6Phk7-63" value="Apagar?" style="rounded=1;whiteSpace=wrap;html=1;fillColor=#d5e8d4;strokeColor=#82b366;" vertex="1" parent="1">
          <mxGeometry x="380" y="1085" width="76" height="30" as="geometry" />
        </mxCell>
        <mxCell id="ApZKAQ_FeUihaHH6Phk7-64" value="Entrar" style="rounded=1;whiteSpace=wrap;html=1;fillColor=#d5e8d4;strokeColor=#82b366;" vertex="1" parent="1">
          <mxGeometry x="294" y="1085" width="76" height="30" as="geometry" />
        </mxCell>
        <mxCell id="ApZKAQ_FeUihaHH6Phk7-65" value="" style="ellipse;whiteSpace=wrap;html=1;aspect=fixed;fontStyle=1" vertex="1" parent="1">
          <mxGeometry x="40" y="1200" width="80" height="80" as="geometry" />
        </mxCell>
        <mxCell id="ApZKAQ_FeUihaHH6Phk7-66" value="Nome do cliente" style="text;html=1;align=center;verticalAlign=middle;whiteSpace=wrap;rounded=0;fontStyle=1" vertex="1" parent="1">
          <mxGeometry x="140" y="1225" width="160" height="30" as="geometry" />
        </mxCell>
        <mxCell id="ApZKAQ_FeUihaHH6Phk7-67" value="" style="shape=actor;whiteSpace=wrap;html=1;fontStyle=1" vertex="1" parent="1">
          <mxGeometry x="60" y="1210" width="40" height="60" as="geometry" />
        </mxCell>
        <mxCell id="ApZKAQ_FeUihaHH6Phk7-68" value="Atualizar?" style="rounded=1;whiteSpace=wrap;html=1;fillColor=#d5e8d4;strokeColor=#82b366;fontStyle=1" vertex="1" parent="1">
          <mxGeometry x="470" y="1225" width="76" height="30" as="geometry" />
        </mxCell>
        <mxCell id="ApZKAQ_FeUihaHH6Phk7-69" value="Apagar?" style="rounded=1;whiteSpace=wrap;html=1;fillColor=#d5e8d4;strokeColor=#82b366;fontStyle=1" vertex="1" parent="1">
          <mxGeometry x="380" y="1225" width="76" height="30" as="geometry" />
        </mxCell>
        <mxCell id="ApZKAQ_FeUihaHH6Phk7-70" value="Entrar" style="rounded=1;whiteSpace=wrap;html=1;fillColor=#d5e8d4;strokeColor=#82b366;fontStyle=1" vertex="1" parent="1">
          <mxGeometry x="294" y="1225" width="76" height="30" as="geometry" />
        </mxCell>
        <mxCell id="ApZKAQ_FeUihaHH6Phk7-71" value="" style="ellipse;whiteSpace=wrap;html=1;aspect=fixed;" vertex="1" parent="1">
          <mxGeometry x="40" y="1330" width="80" height="80" as="geometry" />
        </mxCell>
        <mxCell id="ApZKAQ_FeUihaHH6Phk7-72" value="Nome do cliente" style="text;html=1;align=center;verticalAlign=middle;whiteSpace=wrap;rounded=0;" vertex="1" parent="1">
          <mxGeometry x="140" y="1355" width="160" height="30" as="geometry" />
        </mxCell>
        <mxCell id="ApZKAQ_FeUihaHH6Phk7-73" value="" style="shape=actor;whiteSpace=wrap;html=1;" vertex="1" parent="1">
          <mxGeometry x="60" y="1340" width="40" height="60" as="geometry" />
        </mxCell>
        <mxCell id="ApZKAQ_FeUihaHH6Phk7-74" value="Atualizar?" style="rounded=1;whiteSpace=wrap;html=1;fillColor=#d5e8d4;strokeColor=#82b366;" vertex="1" parent="1">
          <mxGeometry x="470" y="1355" width="76" height="30" as="geometry" />
        </mxCell>
        <mxCell id="ApZKAQ_FeUihaHH6Phk7-75" value="Apagar?" style="rounded=1;whiteSpace=wrap;html=1;fillColor=#d5e8d4;strokeColor=#82b366;" vertex="1" parent="1">
          <mxGeometry x="380" y="1355" width="76" height="30" as="geometry" />
        </mxCell>
        <mxCell id="ApZKAQ_FeUihaHH6Phk7-76" value="Entrar" style="rounded=1;whiteSpace=wrap;html=1;fillColor=#d5e8d4;strokeColor=#82b366;" vertex="1" parent="1">
          <mxGeometry x="294" y="1355" width="76" height="30" as="geometry" />
        </mxCell>
        <mxCell id="ApZKAQ_FeUihaHH6Phk7-77" value="" style="ellipse;whiteSpace=wrap;html=1;aspect=fixed;" vertex="1" parent="1">
          <mxGeometry x="40" y="1470" width="80" height="80" as="geometry" />
        </mxCell>
        <mxCell id="ApZKAQ_FeUihaHH6Phk7-78" value="Nome do cliente" style="text;html=1;align=center;verticalAlign=middle;whiteSpace=wrap;rounded=0;" vertex="1" parent="1">
          <mxGeometry x="140" y="1495" width="160" height="30" as="geometry" />
        </mxCell>
        <mxCell id="ApZKAQ_FeUihaHH6Phk7-79" value="" style="shape=actor;whiteSpace=wrap;html=1;" vertex="1" parent="1">
          <mxGeometry x="60" y="1480" width="40" height="60" as="geometry" />
        </mxCell>
        <mxCell id="ApZKAQ_FeUihaHH6Phk7-80" value="Atualizar?" style="rounded=1;whiteSpace=wrap;html=1;fillColor=#d5e8d4;strokeColor=#82b366;" vertex="1" parent="1">
          <mxGeometry x="470" y="1495" width="76" height="30" as="geometry" />
        </mxCell>
        <mxCell id="ApZKAQ_FeUihaHH6Phk7-81" value="Apagar?" style="rounded=1;whiteSpace=wrap;html=1;fillColor=#d5e8d4;strokeColor=#82b366;" vertex="1" parent="1">
          <mxGeometry x="380" y="1495" width="76" height="30" as="geometry" />
        </mxCell>
        <mxCell id="ApZKAQ_FeUihaHH6Phk7-82" value="Entrar" style="rounded=1;whiteSpace=wrap;html=1;fillColor=#d5e8d4;strokeColor=#82b366;" vertex="1" parent="1">
          <mxGeometry x="294" y="1495" width="76" height="30" as="geometry" />
        </mxCell>
        <mxCell id="ApZKAQ_FeUihaHH6Phk7-86" value="" style="endArrow=classic;html=1;rounded=0;" edge="1" parent="1">
          <mxGeometry width="50" height="50" relative="1" as="geometry">
            <mxPoint x="380" y="280" as="sourcePoint" />
            <mxPoint x="620" y="250" as="targetPoint" />
          </mxGeometry>
        </mxCell>
        <mxCell id="ApZKAQ_FeUihaHH6Phk7-87" value="&lt;font style=&quot;font-size: 36px;&quot;&gt;Página de cadastro&lt;/font&gt;" style="text;html=1;align=center;verticalAlign=middle;whiteSpace=wrap;rounded=0;" vertex="1" parent="1">
          <mxGeometry x="1066" y="40" width="350" height="30" as="geometry" />
        </mxCell>
        <mxCell id="ApZKAQ_FeUihaHH6Phk7-88" value="Nome de usuário:" style="text;html=1;align=center;verticalAlign=middle;whiteSpace=wrap;rounded=0;" vertex="1" parent="1">
          <mxGeometry x="840" y="130" width="120" height="30" as="geometry" />
        </mxCell>
        <mxCell id="ApZKAQ_FeUihaHH6Phk7-89" value="" style="rounded=1;whiteSpace=wrap;html=1;fillColor=#d5e8d4;strokeColor=#82b366;" vertex="1" parent="1">
          <mxGeometry x="840" y="160" width="700" height="40" as="geometry" />
        </mxCell>
        <mxCell id="ApZKAQ_FeUihaHH6Phk7-90" value="E-mail" style="text;html=1;align=center;verticalAlign=middle;whiteSpace=wrap;rounded=0;" vertex="1" parent="1">
          <mxGeometry x="840" y="250" width="120" height="30" as="geometry" />
        </mxCell>
        <mxCell id="ApZKAQ_FeUihaHH6Phk7-91" value="" style="rounded=1;whiteSpace=wrap;html=1;fillColor=#d5e8d4;strokeColor=#82b366;" vertex="1" parent="1">
          <mxGeometry x="840" y="280" width="700" height="40" as="geometry" />
        </mxCell>
        <mxCell id="ApZKAQ_FeUihaHH6Phk7-92" value="Telefone" style="text;html=1;align=center;verticalAlign=middle;whiteSpace=wrap;rounded=0;" vertex="1" parent="1">
          <mxGeometry x="840" y="367.5" width="120" height="30" as="geometry" />
        </mxCell>
        <mxCell id="ApZKAQ_FeUihaHH6Phk7-93" value="" style="rounded=1;whiteSpace=wrap;html=1;fillColor=#d5e8d4;strokeColor=#82b366;" vertex="1" parent="1">
          <mxGeometry x="840" y="397.5" width="700" height="40" as="geometry" />
        </mxCell>
        <mxCell id="ApZKAQ_FeUihaHH6Phk7-94" value="Endereço" style="text;html=1;align=center;verticalAlign=middle;whiteSpace=wrap;rounded=0;" vertex="1" parent="1">
          <mxGeometry x="840" y="480" width="120" height="30" as="geometry" />
        </mxCell>
        <mxCell id="ApZKAQ_FeUihaHH6Phk7-95" value="" style="rounded=1;whiteSpace=wrap;html=1;fillColor=#d5e8d4;strokeColor=#82b366;" vertex="1" parent="1">
          <mxGeometry x="840" y="510" width="700" height="40" as="geometry" />
        </mxCell>
        <mxCell id="ApZKAQ_FeUihaHH6Phk7-99" value="Ir" style="rounded=1;whiteSpace=wrap;html=1;fillColor=#d5e8d4;strokeColor=#82b366;" vertex="1" parent="1">
          <mxGeometry x="1450" y="580" width="90" height="30" as="geometry" />
        </mxCell>
        <mxCell id="ApZKAQ_FeUihaHH6Phk7-100" value="&lt;font style=&quot;font-size: 36px;&quot;&gt;Cadastro Realizado!&lt;/font&gt;" style="text;html=1;align=center;verticalAlign=middle;whiteSpace=wrap;rounded=0;" vertex="1" parent="1">
          <mxGeometry x="1036.5" y="707.5" width="409" height="30" as="geometry" />
        </mxCell>
      </root>
    </mxGraphModel>
  </diagram>
</mxfile>
